<?xml version="1.0" encoding="UTF-8"?>
<svg width="12px" height="12px" viewBox="0 0 12 12" version="1.1" xmlns="http://www.w3.org/2000/svg" xmlns:xlink="http://www.w3.org/1999/xlink">
    <!-- Generator: Sketch 57.1 (83088) - https://sketch.com -->
    <title>Icons/arrow-right</title>
    <desc>Created with Sketch.</desc>
    <g id="Main-file" stroke="none" stroke-width="1" fill="none" fill-rule="evenodd" opacity="0.5">
        <g id="History" transform="translate(-1272.000000, -546.000000)" fill="#FFFFFF" fill-rule="nonzero">
            <g id="Right" transform="translate(660.000000, 10.000000)">
                <g id="Icons/arrow-right" transform="translate(612.000000, 535.000000)">
                    <path d="M11.92,6.62 C11.8724056,6.49724868 11.8010406,6.38510371 11.71,6.29 L6.71,1.29 C6.45634143,1.03634143 6.08662601,0.937276483 5.74012196,1.03012196 C5.39361791,1.12296744 5.12296744,1.39361791 5.03012196,1.74012196 C4.93727648,2.08662601 5.03634143,2.45634143 5.29,2.71 L8.59,6 L1,6 C0.44771525,6 0,6.44771525 0,7 C0,7.55228475 0.44771525,8 1,8 L8.59,8 L5.29,11.29 C5.10068735,11.4777666 4.99420168,11.7333625 4.99420168,12 C4.99420168,12.2666375 5.10068735,12.5222334 5.29,12.71 C5.4777666,12.8993127 5.73336246,13.0057983 6,13.0057983 C6.26663754,13.0057983 6.5222334,12.8993127 6.71,12.71 L11.71,7.71 C11.8010406,7.61489629 11.8724056,7.50275132 11.92,7.38 C12.020018,7.13653864 12.020018,6.86346136 11.92,6.62 Z" id="Path"></path>
                </g>
            </g>
        </g>
    </g>
</svg>