<?xml version="1.0" encoding="UTF-8"?>
<svg width="682px" height="346px" viewBox="0 0 682 346" version="1.1" xmlns="http://www.w3.org/2000/svg" xmlns:xlink="http://www.w3.org/1999/xlink">
    <!-- Generator: sketchtool 56.3 (101010) - https://sketch.com -->
    <title>6379B9D8-FDC7-4DF6-BC43-6BA0A8E061F2</title>
    <desc>Created with sketchtool.</desc>
    <g id="Main-file" stroke="none" stroke-width="1" fill="none" fill-rule="evenodd">
        <g id="History" transform="translate(-704.000000, -668.000000)">
            <g id="Right" transform="translate(660.000000, 10.000000)">
                <g id="BG">
                    <g id="Illustration" transform="translate(44.000000, 659.000000)">
                        <circle id="Oval" fill="#FFFFFF" fill-rule="nonzero" cx="383.11852" cy="24.2808069" r="12.7307897"></circle>
                        <circle id="Oval" fill="#FFFFFF" fill-rule="nonzero" cx="39.0498349" cy="161.016142" r="12.7307897"></circle>
                        <path d="M286.05152,103.945469 C305.075078,58.2327031 320.570375,16.7932095 332.907574,15.8232892 C343.492356,14.9986227 338.600584,46.9872503 348.332586,48.3226479 C358.064589,49.6580454 396.758318,-2.08977998 411.457062,0.131196949 C426.155806,2.35217388 440.807693,124.908867 448.159408,125.756962 C455.511123,126.605056 456.963661,64.7550658 466.302072,65.2236263 C475.640484,65.6921868 478.400305,125.874102 478.400305,125.874102" id="Path" stroke="#78CBFF" stroke-width="1.44"></path>
                        <path d="M20.527637,195.389743 C20.527637,195.389743 45.8299058,138.576778 92.5266486,144.818004 C139.223391,151.059231 146.017519,239.153296 205.534078,223.536174 C227.401798,217.786936 246.80489,188.51596 263.926092,153.687855" id="Path" stroke="#78CBFF" stroke-width="1.44"></path>
                        <path d="M299.967768,270.799875 C288.661402,307.113316 232.466938,332.092278 195.577167,319.37086 C189.074362,317.199538 183.126297,313.62974 178.151401,308.912589 C175.449029,306.30988 173.087411,303.375175 171.122993,300.17862 C162.923183,286.890244 174.637197,270.612451 181.356355,246.533125 C188.67527,220.223451 175.054215,198.407272 193.913777,186.018532 C197.485673,183.660809 201.345325,181.771138 205.398196,180.395806 C217.229349,176.375556 229.899226,177.087768 242.039629,181.140817 C278.793518,193.370247 310.739975,236.19668 299.967768,270.799875 Z" id="Path" fill="#FFFFFF" fill-rule="nonzero" opacity="0.300000012"></path>
                        <path d="M170.288955,278.526438 C170.288955,278.526438 203.875374,255.135896 209.596498,257.441214 C215.317622,259.746532 199.367822,313.57008 199.367822,313.57008" id="Path" stroke="#FFFFFF" stroke-width="0.96"></path>
                        <path d="M207.872195,179.599253 C207.872195,179.599253 190.235577,224.716946 202.155757,236.370047 C214.075937,248.023147 253.866097,203.617666 253.866097,203.617666 C253.866097,203.617666 241.945917,221.690045 243.482796,230.916002 C245.019674,240.141959 289.256474,218.213326 289.256474,218.213326" id="Path" stroke="#FFFFFF" stroke-width="0.96"></path>
                        <ellipse id="Oval" fill="#FFFFFF" fill-rule="nonzero" cx="235.19396" cy="258.654786" rx="8.48563127" ry="11.5968732"></ellipse>
                        <circle id="Oval" fill="#0063B6" fill-rule="nonzero" cx="25.8926551" cy="267.515266" r="25.466265"></circle>
                        <path d="M660.304876,255.913707 C648.983302,255.89171 639.823185,246.69593 639.845141,235.374356 C639.867177,224.052782 649.062957,214.892664 660.384531,214.914621 L660.464186,214.914621 C671.664309,215.104368 680.638264,224.249367 680.616538,235.451076 C680.594733,246.652784 671.585306,255.76284 660.384531,255.909021 L660.304876,255.913707 Z" id="Path" fill="#FFFFFF" fill-rule="nonzero"></path>
                        <path d="M660.384531,215.61746 L660.464186,215.61746 C671.397592,215.639497 680.243036,224.520605 680.221081,235.454011 C680.199044,246.387417 671.317936,255.232862 660.384531,255.210907 L660.304876,255.210907 C649.37147,255.188869 640.526025,246.307761 640.54798,235.374356 C640.570018,224.44095 649.451125,215.595505 660.384531,215.61746 L660.384531,215.61746 Z M660.384531,214.211776 C648.674788,214.188529 639.163286,223.662271 639.139953,235.372013 C639.116706,247.081755 648.590448,256.593257 660.30019,256.61659 L660.384531,256.61659 C672.094273,256.639838 681.605775,247.166096 681.629108,235.456354 C681.652355,223.746611 672.178614,214.235109 660.468872,214.211776 L660.384531,214.211776 Z" id="Shape" fill="#170C2C" fill-rule="nonzero"></path>
                        <path d="M609.920561,201.176465 C609.878162,217.721054 603.716222,233.66499 592.621306,245.938053 C589.223079,249.702435 585.413287,253.073723 581.263399,255.988676 C561.043433,270.152191 534.688806,272.098922 512.607223,261.060087 C490.52564,250.021251 476.267096,227.771531 475.462431,203.097563 C475.434317,202.282268 475.42026,201.466973 475.424058,200.642306 C476.166073,163.934982 506.211651,134.606663 542.926166,134.751956 C579.640681,134.898332 609.452322,164.464412 609.901819,201.176465 L609.920561,201.176465 Z" id="Path" fill="#0063B6" fill-rule="nonzero"></path>
                        <path d="M475.462431,203.097563 C475.434317,202.282268 475.42026,201.466973 475.424946,200.642306 C475.439989,195.498373 476.045268,190.373157 477.228904,185.367233 C481.403778,183.183741 484.725872,182.55587 486.10344,184.045892 C488.563383,186.693259 483.82155,195.108606 475.462431,203.097563 Z" id="Path" fill="#FFFFFF" fill-rule="nonzero"></path>
                        <ellipse id="Oval" fill="#FFFFFF" fill-rule="nonzero" transform="translate(527.179648, 200.854856) rotate(-68.210000) translate(-527.179648, -200.854856) " cx="527.179648" cy="200.854856" rx="11.2876233" ry="16.479274"></ellipse>
                        <ellipse id="Oval" fill="#FFFFFF" fill-rule="nonzero" transform="translate(573.422698, 158.811022) rotate(-41.900000) translate(-573.422698, -158.811022) " cx="573.422698" cy="158.811022" rx="6.56921868" ry="7.5485102"></ellipse>
                        <path d="M606.874918,220.968462 C595.324901,203.294359 576.563737,178.277912 565.17303,182.396559 C547.915946,188.647157 554.864699,251.467067 549.49968,252.127738 C544.134662,252.788408 536.295645,237.550819 530.944683,239.148611 C524.989279,240.929141 519.788257,254.81259 517.154947,263.157653" id="Path" stroke="#FFFFFF" stroke-width="0.96"></path>
                        <path d="M490.479796,158.504657 C499.780722,167.899296 509.568952,176.244359 513.247152,174.117094 C518.691825,170.968368 515.819549,151.349738 515.819549,151.349738 C515.819549,151.349738 531.966145,180.658199 542.579041,177.406389 C549.748018,175.20884 541.768432,146.012834 538.090231,133.83026" id="Path" stroke="#FFFFFF" stroke-width="0.96" stroke-linejoin="round"></path>
                        <polygon id="Path" fill="#78CBFF" fill-rule="nonzero" points="196.083212 133.37107 136.215233 111.058218 117.393156 104.048552 71.7975306 87.0538616 166.57327 15.1579333 179.767934 5.14479466 181.539093 19.0797849"></polygon>
                        <polygon id="Path" fill="#0093ED" fill-rule="nonzero" points="518.204522 307.417881 657.765277 307.970782 597.859813 415.444512"></polygon>
                        <path d="M628.086653,307.844271 C628.086653,307.844271 603.571566,320.172098 602.929638,329.711991 C602.28771,339.251883 622.33273,343.698523 622.33273,343.698523 C622.33273,343.698523 603.665278,345.994469 600.961684,363.303096 C598.53454,378.878048 608.814758,395.783712 608.814758,395.783712" id="Path" stroke="#FFFFFF" stroke-width="0.96"></path>
                        <path d="M152.877245,414.760413 C152.877245,414.760413 208.893657,483.915263 233.202578,482.982827 C243.440625,482.593922 227.823503,457.010517 233.310347,455.736032 C238.79719,454.461547 254.264374,479.609191 273.330102,470.167696 C302.915014,455.520494 270.050178,365.050826 332.579581,335.456543 C395.108985,305.86226 422.126185,358.73463 458.017922,361.035263 C493.909659,363.335895 571.643851,280.606847 601.05071,285.044115 C630.457569,289.481383 537.682584,413.542156 555.895532,437.546512 C566.302261,451.261279 590.531526,429.032767 600.033934,432.532914 C609.536342,436.033062 594.767314,451.973491 602.976494,454.602116 C611.185675,457.23074 670.139961,423.292901 670.139961,423.292901" id="Path" stroke="#AE9FD3" stroke-width="1.44"></path>
                        <path d="M346.027269,85.2452179 C346.027269,85.2452179 326.956855,93.3606864 322.599242,106.958313 C318.241629,120.55594 332.584267,135.22657 332.584267,135.22657 L378.212692,125.681992 L346.027269,85.2452179 Z" id="Path" fill="#000000" fill-rule="nonzero"></path>
                        <path d="M389.926705,210.571104 C400.620253,193.962458 401.640891,172.910496 392.604155,155.345289 C383.567419,137.780083 365.846205,126.370203 346.115922,125.413642 C326.385638,124.457082 307.643786,134.099164 296.950238,150.70781 L389.926705,210.571104 Z" id="Path" fill="#0093ED" fill-rule="nonzero"></path>
                        <path d="M366.882898,141.406884 L376.254109,106.733404 C376.254109,106.733404 388.713133,103.551878 388.516338,95.0896747 C388.319542,86.6274715 379.337237,88.3424031 379.337237,88.3424031 C379.337237,88.3424031 377.931555,76.4784503 366.287826,72.9408183 C354.644097,69.4031863 345.080776,81.5435897 343.79692,91.1584519 C341.922678,105.355836 346.322462,113.415077 360.946236,113.43382 L354.854949,132.288696" id="Path" fill="#C2E6FA" fill-rule="nonzero"></path>
                        <path d="M369.464667,131.85762 C357.624142,125.147833 374.314268,85.3248732 374.314268,85.3248732 C359.934145,89.8183687 346.486458,83.2538357 346.486458,83.2538357 C346.486458,83.2538357 354.639411,64.230278 375.616866,71.5819928 C396.594321,78.9337075 398.159314,93.7777052 398.159314,93.7777052 C398.159314,93.7777052 419.877094,104.61551 415.931815,123.297019 C411.986535,141.978527 389.256663,149.686348 389.256663,149.686348 C389.256663,149.686348 378.878048,137.189839 369.464667,131.85762 Z" id="Path" fill="#000000" fill-rule="nonzero"></path>
                        <ellipse id="Oval" fill="#0063B6" fill-rule="nonzero" transform="translate(165.359383, 55.670917) rotate(-66.690000) translate(-165.359383, -55.670917) " cx="165.359383" cy="55.6709172" rx="9.45555157" ry="7.04246482"></ellipse>
                        <polygon id="Path" fill="#0063B6" fill-rule="nonzero" points="503.7916 47.1418753 513.364292 29.978503 569.549386 15.767062 559.976694 32.9304343"></polygon>
                        <polygon id="Path" fill="#0083C8" fill-rule="nonzero" points="591.032886 95.7503451 600.605578 78.5822871 586.394137 22.3971935 576.821445 39.5605659"></polygon>
                        <polygon id="Rectangle" fill="#FFFFFF" fill-rule="nonzero" transform="translate(555.835714, 74.810800) rotate(-14.190000) translate(-555.835714, -74.810800) " points="527.560429 46.5355146 584.111 46.5355146 584.111 103.086085 527.560429 103.086085"></polygon>
                        <path d="M575.804669,41.2708118 L589.32264,94.7288831 L535.864569,108.237483 L522.341912,54.7747264 L575.804669,41.256755 L575.804669,41.2708118 Z M576.821445,39.5465091 L520.631666,53.75795 L534.843107,109.947729 L591.032886,95.7362883 L576.821445,39.5465091 Z" id="Shape" fill="#170C2C" fill-rule="nonzero"></path>
                        <polygon id="Path" fill="#0093ED" fill-rule="nonzero" points="518.204522 307.417881 566.442829 307.60999 552.095506 353.374298"></polygon>
                        <path d="M592.621306,245.938053 C589.223079,249.702435 585.413287,253.073723 581.263399,255.988676 C580.405933,253.823927 579.600009,251.490495 578.878426,249.035238 C575.129942,236.177937 575.064343,224.866886 578.789399,223.77514 C582.514456,222.683394 588.596371,232.209229 592.377655,245.075902 C592.45731,245.366409 592.541651,245.652231 592.621306,245.938053 Z" id="Path" fill="#FFFFFF" fill-rule="nonzero"></path>
                        <polygon id="Rectangle" fill="#FFFFFF" fill-rule="nonzero" transform="translate(57.268275, 294.565245) rotate(-67.040000) translate(-57.268275, -294.565245) " points="-5.78122996 267.822153 120.317781 267.822153 120.317781 321.308338 -5.78122996 321.308338"></polygon>
                        <path d="M57.6329457,227.012893 L105.566688,247.329678 L56.9207337,362.127009 L8.96824862,341.828966 L57.6329457,227.012893 L57.6329457,227.012893 Z M56.8879344,225.17145 L7.12680572,342.573978 L57.6657449,363.987194 L107.408131,246.584667 L56.869192,225.17145 L56.8879344,225.17145 Z" id="Shape" fill="#170C2C" fill-rule="nonzero"></path>
                        <ellipse id="Oval" fill="#0083C8" fill-rule="nonzero" transform="translate(82.137732, 235.865345) rotate(-67.040000) translate(-82.137732, -235.865345) " cx="82.1377323" cy="235.865345" rx="9.97565377" ry="27.4435905"></ellipse>
                        <ellipse id="Oval" fill="#F7C9D6" fill-rule="nonzero" transform="translate(32.399190, 353.263317) rotate(-67.040000) translate(-32.399190, -353.263317) " cx="32.3991899" cy="353.263317" rx="9.97565377" ry="27.4435905"></ellipse>
                        <path d="M400.02887,149.709776 C400.02887,149.709776 406.949509,150.342333 410.374687,158.429688 C413.799864,166.517043 415.121205,198.013682 428.334612,210.721043 C441.548019,223.428405 472.102851,226.089829 481.361608,218.686572 C491.051439,210.936581 492.236898,202.582147 501.46754,202.043302 C510.698183,201.504458 513.842224,207.281809 512.970701,208.72029 C512.099179,210.158771 503.163729,209.976032 502.292207,212.000214" id="Path" stroke="#170C2C" stroke-width="1.44"></path>
                        <path d="M385.461323,224.239015 C385.461323,224.239015 423.203874,305.299987 517.595394,237.068202" id="Path" stroke="#170C2C" stroke-width="1.44"></path>
                        <path d="M198.458814,79.7396316 C198.458814,79.7396316 213.832285,130.245772 225.635325,135.807585 C237.438365,141.369399 291.500879,151.51842 291.500879,151.51842" id="Path" stroke="#170C2C" stroke-width="1.44"></path>
                        <path d="M221.952439,64.2583916 C221.952439,64.2583916 242.376993,104.250033 256.199529,108.078173 C270.022064,111.906312 292.934675,109.586938 314.010527,118.255308" id="Path" stroke="#170C2C" stroke-width="1.44"></path>
                        <path d="M189.092289,60.9597255 C189.092289,60.9597255 165.551808,59.2307371 164.891137,56.4428019 C164.230467,53.6548667 196.91725,51.0730982 196.91725,51.0730982" id="Path" stroke="#170C2C" stroke-width="1.44"></path>
                        <path d="M202.750829,58.5138395 C202.750829,58.5138395 195.619337,63.1994448 195.25386,60.9831535 C194.888383,58.7668622 198.065223,49.2691401 204.817181,49.1988561 C211.569138,49.128572 224.210901,54.8496961 220.631099,60.4115096 C217.051296,65.9733232 209.095138,60.5567634 209.095138,60.5567634" id="Path" stroke="#170C2C" stroke-width="1.44"></path>
                        <path d="M180.864328,60.181915 C180.864328,60.181915 180.794082,67.1728381 186.655774,68.147444 C192.517467,69.12205 201.064011,70.2231672 201.649711,67.5336297 C202.235412,64.8440923 193.970004,65.1908271 193.117224,61.9109033" id="Path" stroke="#170C2C" stroke-width="1.44"></path>
                        <path d="M196.846966,69.2298189 C196.846966,69.2298189 203.013222,72.4628866 201.153037,74.46364 C199.991007,75.7053255 186.665145,68.1568153 186.665145,68.1568153" id="Path" stroke="#170C2C" stroke-width="1.44"></path>
                        <path d="M509.985971,198.468185 C509.985971,198.468185 527.702244,195.595909 530.302755,200.857844 C531.305475,202.882026 513.022243,207.506718 513.022243,207.506718" id="Path" stroke="#170C2C" stroke-width="1.44"></path>
                        <path d="M521.470389,211.091206 C521.470389,211.091206 523.147836,227.565794 513.0363,227.134719 C510.304592,227.017579 517.112776,215.509732 513.087841,214.483584" id="Path" stroke="#170C2C" stroke-width="1.44"></path>
                        <path d="M521.540673,221.72753 C521.540673,221.72753 525.54218,232.949555 520.027223,234.847225 C518.780852,235.273615 518.96359,228.14681 516.944095,227.162832" id="Path" stroke="#170C2C" stroke-width="1.44"></path>
                        <path d="M187.925573,69.2579325 C187.925573,69.2579325 153.486374,72.2520343 152.633594,79.8005445 C151.780814,87.3490547 173.686019,90.9803989 173.864072,92.5032206 C174.042125,94.0260423 149.405212,98.4726818 150.16428,104.962245 C150.923348,111.451809 194.321425,123.784322 194.321425,123.784322" id="Path" stroke="#0063B6" stroke-width="0.96"></path>
                        <path d="M146.940583,30.048787 C146.940583,30.048787 175.522776,21.5678414 176.056935,26.2487611 C176.773833,32.3962753 116.938652,56.0210974 117.018308,60.074146 C117.097963,64.1271947 138.103532,61.4798276 138.614263,64.3193045 C139.124994,67.1587813 87.583335,92.9436675 87.583335,92.9436675" id="Path" stroke="#0063B6" stroke-width="0.96"></path>
                        <path d="M136.215233,111.048847 L117.393156,104.020439 C120.949531,92.9998948 126.530087,85.5404111 131.098552,86.5056458 C136.055922,87.5739638 138.122274,98.1587462 136.215233,111.048847 Z" id="Path" fill="#0063B6" fill-rule="nonzero"></path>
                        <path d="M302.718218,225.780579 C254.681393,232.944869 187.124335,285.573589 190.4558,318.026091 C193.787266,350.478594 271.858822,405.426688 271.858822,405.426688 C271.858822,405.426688 258.668843,423.395984 261.930024,437.251319 L321.15139,381.876835 L267.580864,329.576108 L323.555105,293.393864 L373.006984,310.960198 L356.752619,423.353814 L426.07615,453.90396 C426.07615,453.90396 421.390545,433.123301 408.022513,425.284283 C408.022513,425.284283 458.280316,294.71989 439.804974,263.790209 C421.329632,232.860529 349.775753,218.766228 302.718218,225.780579 Z" id="Path" fill="#000000" fill-rule="nonzero"></path>
                        <path d="M251.153132,312.36588 L299.714745,359.943516" id="Path" stroke="#FFFFFF" stroke-width="1.44"></path>
                        <path d="M373.784795,299.480465 L371.132742,317.44039" id="Path" stroke="#FFFFFF" stroke-width="1.44"></path>
                        <path d="M533.868501,328.662415 C533.868501,328.662415 555.03338,317.177997 564.418648,326.628863 C574.591097,336.895024 558.055596,361.433539 558.055596,361.433539" id="Path" stroke="#FFFFFF" stroke-width="0.96"></path>
                    </g>
                </g>
            </g>
        </g>
    </g>
</svg>